<?xml version="1.0" encoding="utf-8"?><svg version="1.1" id="Layer_1" xmlns="http://www.w3.org/2000/svg" xmlns:xlink="http://www.w3.org/1999/xlink" x="0px" y="0px" viewBox="0 0 122.88 122.88" style="enable-background:new 0 0 122.88 122.88" xml:space="preserve"><style type="text/css"><![CDATA[
	.st0{fill-rule:evenodd;clip-rule:evenodd;fill:#1B9C28;}
]]></style><g><path class="st0" d="M93.67,26.26c-19.52,6.76-45.41,6.05-53.84,26.82c-3.46,8.53-3.48,15.23-1.29,20.05H13.81 c5.24,21.45,24.58,37.36,47.63,37.36c23.06,0,42.4-15.92,47.64-37.36H77.51C87.82,64.22,95.56,48.72,93.67,26.26L93.67,26.26z M46.53,80.92l-2.09,15.9h-6.26l-2.4-15.9h4.36c0.49,4.39,0.85,8.1,1.08,11.13c0.22-3.07,0.45-5.79,0.68-8.16l0.27-2.97H46.53 L46.53,80.92z M56.11,90.53h-5.15v2.83c0,0.59,0.04,0.97,0.13,1.14c0.09,0.17,0.25,0.25,0.5,0.25c0.3,0,0.51-0.11,0.61-0.34 c0.1-0.23,0.15-0.67,0.15-1.32v-1.72h3.76v0.96c0,0.81-0.05,1.43-0.15,1.86c-0.1,0.43-0.34,0.89-0.71,1.39 c-0.37,0.49-0.85,0.86-1.42,1.11c-0.57,0.25-1.29,0.37-2.15,0.37c-0.84,0-1.58-0.12-2.22-0.36c-0.64-0.24-1.14-0.57-1.5-1 c-0.36-0.42-0.6-0.89-0.74-1.4C47.07,93.8,47,93.07,47,92.09v-3.8c0-1.14,0.15-2.04,0.46-2.7c0.31-0.66,0.81-1.16,1.51-1.51 c0.7-0.35,1.51-0.53,2.42-0.53c1.11,0,2.03,0.21,2.75,0.63c0.72,0.42,1.23,0.98,1.53,1.68c0.29,0.69,0.44,1.67,0.44,2.94V90.53 L56.11,90.53z M52.15,88.42v-0.95c0-0.68-0.04-1.11-0.11-1.31c-0.07-0.2-0.22-0.29-0.45-0.29c-0.28,0-0.46,0.08-0.52,0.25 c-0.07,0.17-0.1,0.62-0.1,1.35v0.95H52.15L52.15,88.42z M66.43,83.8v10.04c0,1.35-0.03,2.23-0.09,2.63 c-0.06,0.4-0.29,0.81-0.66,1.26c-0.38,0.44-0.91,0.78-1.59,1.01c-0.68,0.23-1.54,0.35-2.56,0.35c-1.27,0-2.28-0.21-3.05-0.64 c-0.77-0.43-1.16-1.27-1.19-2.53h3.84c0,0.58,0.21,0.87,0.64,0.87c0.31,0,0.51-0.09,0.61-0.26c0.1-0.18,0.15-0.55,0.15-1.11V94.4 c-0.34,0.31-0.7,0.54-1.08,0.7c-0.38,0.16-0.77,0.24-1.19,0.24c-0.72,0-1.31-0.14-1.77-0.43c-0.47-0.29-0.78-0.67-0.95-1.13 c-0.17-0.47-0.26-1.14-0.26-2v-4.73c0-1.24,0.22-2.13,0.67-2.67c0.45-0.54,1.13-0.81,2.05-0.81c0.5,0,0.96,0.1,1.37,0.31 c0.41,0.21,0.78,0.51,1.1,0.92l0.28-0.99H66.43L66.43,83.8z M62.47,87.25c0-0.6-0.04-0.98-0.11-1.14s-0.23-0.24-0.47-0.24 c-0.24,0-0.41,0.09-0.5,0.28c-0.1,0.19-0.15,0.56-0.15,1.11v4.38c0,0.58,0.04,0.96,0.11,1.13c0.07,0.17,0.23,0.26,0.47,0.26 c0.27,0,0.45-0.1,0.53-0.31c0.08-0.21,0.12-0.68,0.12-1.42V87.25L62.47,87.25z M71.37,88.84h-3.72v-0.88 c0-1.01,0.12-1.79,0.35-2.34c0.23-0.55,0.7-1.03,1.4-1.45c0.7-0.42,1.61-0.63,2.73-0.63c1.34,0,2.35,0.24,3.03,0.71 c0.68,0.47,1.09,1.05,1.23,1.75s0.21,2.12,0.21,4.27v6.54h-3.86v-1.16c-0.24,0.47-0.56,0.82-0.94,1.05 c-0.38,0.23-0.84,0.35-1.37,0.35c-0.7,0-1.33-0.19-1.91-0.58c-0.58-0.39-0.87-1.24-0.87-2.56v-1.07c0-0.98,0.15-1.64,0.46-1.99 s1.07-0.77,2.29-1.24c1.3-0.51,2-0.85,2.1-1.03c0.09-0.18,0.14-0.54,0.14-1.08c0-0.68-0.05-1.12-0.15-1.33 c-0.1-0.2-0.27-0.31-0.51-0.31c-0.27,0-0.44,0.09-0.5,0.26c-0.07,0.17-0.1,0.62-0.1,1.35V88.84L71.37,88.84z M72.63,90.63 c-0.64,0.47-1.01,0.85-1.11,1.17c-0.11,0.32-0.15,0.76-0.15,1.35c0,0.68,0.04,1.11,0.13,1.31c0.09,0.2,0.27,0.29,0.53,0.29 c0.25,0,0.41-0.08,0.49-0.23c0.08-0.15,0.11-0.56,0.11-1.21V90.63L72.63,90.63z M81.98,83.8l-0.06,1.21 c0.29-0.48,0.64-0.84,1.06-1.09c0.42-0.24,0.89-0.36,1.44-0.36c0.68,0,1.24,0.16,1.67,0.48c0.43,0.32,0.71,0.72,0.83,1.21 c0.13,0.49,0.19,1.3,0.19,2.44v9.13h-3.96V87.8c0-0.89-0.03-1.44-0.09-1.64c-0.06-0.2-0.22-0.29-0.49-0.29 c-0.29,0-0.46,0.11-0.54,0.34c-0.07,0.23-0.11,0.83-0.11,1.81v8.81h-3.96V83.8H81.98L81.98,83.8z M61.44,0 c16.97,0,32.33,6.88,43.44,18s18,26.48,18,43.44c0,16.97-6.88,32.33-18,43.45c-11.12,11.12-26.48,18-43.44,18 c-16.97,0-32.33-6.88-43.44-18C6.88,93.77,0,78.41,0,61.44C0,44.47,6.88,29.11,18,18C29.11,6.88,44.47,0,61.44,0L61.44,0z M100.03,22.85C90.16,12.97,76.51,6.86,61.44,6.86c-15.07,0-28.72,6.11-38.59,15.99C12.97,32.72,6.86,46.37,6.86,61.44 c0,15.07,6.11,28.72,15.99,38.59c9.88,9.88,23.52,15.99,38.59,15.99c15.07,0,28.72-6.11,38.59-15.99 c9.88-9.88,15.99-23.52,15.99-38.59C116.02,46.37,109.91,32.72,100.03,22.85L100.03,22.85z M46.57,71.92 c8.1-17.45,28.91-23.44,39.24-35.37C74.62,58.37,65.48,59.43,46.57,71.92L46.57,71.92z"/></g></svg>